<svg width="28" height="10" viewBox="0 0 28 10" fill="none" xmlns="http://www.w3.org/2000/svg">
<path d="M0.94997 5.35639C0.994502 5.47123 1.0613 5.5767 1.14684 5.66575L4.89684 9.41575C5.07263 9.5927 5.31285 9.69348 5.56248 9.69348C5.81211 9.69348 6.05232 9.5927 6.22812 9.41575C6.40508 9.23997 6.50586 8.99974 6.50586 8.75011C6.50586 8.50048 6.40508 8.26027 6.22812 8.08447L4.07187 5.93761H26.6562C27.1742 5.93761 27.5937 5.51809 27.5937 5.00011C27.5937 4.48213 27.1742 4.06261 26.6562 4.06261H4.07187L6.22812 1.91575C6.5961 1.54777 6.5961 0.952482 6.22812 0.584502C5.86014 0.216522 5.26485 0.216522 4.89687 0.584502L1.14687 4.3345C1.06133 4.42357 0.994532 4.52903 0.95 4.64386C0.901952 4.75636 0.876173 4.87706 0.875 5.00011C0.876172 5.12316 0.901953 5.24386 0.95 5.35636L0.94997 5.35639Z" fill="#545F7D"/>
</svg>
