<svg width="40" height="40" viewBox="0 0 40 40" fill="none" xmlns="http://www.w3.org/2000/svg">
<circle opacity="0.1" cx="20" cy="20" r="20" fill="#5718FF"/>
<path d="M14.4088 29.7755L14.4088 29.7753C14.2427 29.7637 14.1051 29.6935 14.0102 29.5773C13.9355 29.4858 13.8911 29.3707 13.8762 29.243H13.8676V29.143C13.8676 27.8381 14.2137 26.6162 14.8133 25.5614H11.4354C11.2647 25.5614 11.1185 25.4984 11.0151 25.3838C10.9128 25.2704 10.8596 25.1146 10.8563 24.9395M14.4088 29.7755L10.9563 24.9373M14.4088 29.7755L14.4157 29.7755L27.5545 29.7784C27.8752 29.7784 28.1335 29.5188 28.1335 29.1993C28.1335 27.9325 27.7596 26.6106 27.1652 25.5615L30.5639 25.5606C30.8846 25.5606 31.143 25.301 31.143 24.9815L31.143 24.9803C31.1124 22.5787 29.7611 20.5478 27.642 19.6785C28.786 18.9512 29.5184 17.6743 29.5184 16.259C29.5184 12.796 25.468 10.9613 22.9041 13.2053C21.6926 12.7061 20.3069 12.7061 19.0954 13.2053C18.3769 12.5769 17.4538 12.2225 16.4819 12.2225C12.4524 12.2225 10.9952 17.5735 14.3568 19.6801M14.4088 29.7755L14.5834 19.6986C14.5458 19.6774 14.5088 19.6558 14.4723 19.6337C14.4336 19.6487 14.3951 19.6642 14.3568 19.6801M10.8563 24.9395C10.8563 24.9394 10.8563 24.9393 10.8563 24.9391L10.9563 24.9373M10.8563 24.9395C10.8563 24.9396 10.8564 24.9397 10.8564 24.9398L10.9563 24.9373M10.8563 24.9395C10.8008 22.6744 12.279 20.5403 14.3568 19.6801M10.9563 24.9373C10.9011 22.691 12.3857 20.5712 14.4632 19.7447C14.4272 19.7235 14.3917 19.702 14.3568 19.6801M14.9876 25.4614H14.8713L14.9286 25.5614C14.948 25.5279 14.9677 25.4946 14.9876 25.4614ZM27.5289 14.2208L27.529 14.2208C29.2108 15.9195 28.1948 18.8304 25.877 19.118C26.3723 17.1142 25.6089 15.0353 23.9941 13.8271C25.1109 13.1096 26.5822 13.2636 27.5289 14.2208ZM16.1248 19.1177C14.7124 18.9379 13.6403 17.7188 13.6403 16.2608C13.6403 13.9608 16.15 12.6264 18.008 13.827C16.393 15.0351 15.6297 17.1138 16.1248 19.1177ZM24.4988 19.5398C23.1179 22.541 18.8819 22.5437 17.5011 19.5399C16.2785 16.8771 18.2423 13.9895 20.989 13.989C23.9024 14.0253 25.6822 16.9672 24.4988 19.5398ZM12.0459 24.4043C12.3122 22.0953 14.281 20.3435 16.6465 20.4198C17.1146 21.2353 17.8013 21.9107 18.6305 22.3566C17.4649 22.7713 16.4356 23.482 15.6346 24.4042L12.0459 24.4043ZM26.3445 24.4042C25.5465 23.4875 24.5226 22.7755 23.3622 22.3621C24.1946 21.9141 24.8858 21.2383 25.356 20.4198C27.7215 20.3434 29.6905 22.0943 29.9566 24.4042H26.3445ZM15.0479 28.6202C15.1691 27.1942 15.8065 25.8488 16.7718 24.8727C20.381 21.2248 26.5119 23.5852 26.9316 28.6202H15.0479Z" fill="#5718FF" stroke="#5718FF" stroke-width="0.2"/>
<path d="M22.2471 18.7977L22.2395 18.8124C21.7073 19.8176 20.2757 19.8107 19.7509 18.7979C19.6665 18.6342 19.5368 18.5376 19.3924 18.5017C19.2506 18.4663 19.1019 18.4912 18.9774 18.5554C18.8528 18.6195 18.7462 18.7261 18.6926 18.8621C18.638 19.0006 18.6413 19.1624 18.7256 19.3264L18.7257 19.3266C19.6816 21.179 22.32 21.1791 23.275 19.3265C23.3596 19.1625 23.3631 19.0006 23.3085 18.862C23.2548 18.7258 23.1481 18.6192 23.0233 18.555C22.8985 18.4908 22.7495 18.4659 22.6073 18.5013C22.4625 18.5372 22.3322 18.6338 22.2471 18.7977ZM23.1861 19.2807C22.2683 21.061 19.7333 21.061 18.8145 19.2807L22.4019 18.7438C22.7353 18.3458 23.4544 18.7607 23.1861 19.2807Z" fill="#5718FF" stroke="#5718FF" stroke-width="0.2"/>
</svg>
