<svg width="40" height="40" viewBox="0 0 40 40" fill="none" xmlns="http://www.w3.org/2000/svg">
<circle opacity="0.1" cx="20" cy="20" r="20" fill="#DF18FF"/>
<g clip-path="url(#clip0_5530_2780)">
<path d="M19.7809 22.9717L19.8295 23.0592C19.8282 23.0598 19.827 23.0605 19.8257 23.0611L19.7809 22.9717ZM19.7809 22.9717C19.8108 22.9567 19.8408 22.942 19.8707 22.9274L19.8683 22.9231L19.7809 22.9717ZM28.2882 22.4376L28.2877 22.4374C27.6974 22.1973 27.2366 22.0011 26.9162 21.7334C26.6117 21.4789 26.4326 21.1579 26.4084 20.6562C26.6451 20.3531 26.7986 19.9771 26.8978 19.6431C26.9958 19.3135 27.0427 19.0182 27.0633 18.8612C27.4558 18.2465 27.6135 17.6202 27.5473 17.1882C27.8775 16.3912 27.6457 15.7435 27.4261 15.2302C27.2437 14.7919 27.1121 14.4211 27.2809 13.9465L27.3906 13.6543L27.421 13.5733L27.3453 13.5316L27.0153 13.3494L27.0154 13.3492L27.0094 13.3464C25.8165 12.7871 24.4665 12.7085 23.4811 13.1248L23.4811 13.1247L23.4774 13.1264C22.8423 13.4252 22.3485 13.9122 22.1145 14.5876C21.7367 14.9025 21.5609 15.3616 21.5005 15.8211C21.4402 16.2795 21.4932 16.7492 21.5839 17.105C21.478 17.5783 21.6742 18.2115 22.0676 18.826C22.0882 18.9826 22.1351 19.2779 22.2331 19.6076C22.3321 19.9411 22.4853 20.3166 22.7213 20.6195C22.6803 21.1225 22.5005 21.4442 22.2003 21.6986C21.8846 21.9661 21.433 22.1623 20.8432 22.4021L20.8273 22.4085C20.4663 22.5531 20.1018 22.699 19.7361 22.8823L19.6428 22.9291L19.6935 23.0203L20.0604 23.6803L20.109 23.7676L20.1964 23.7192C20.4106 23.6004 20.6199 23.5151 20.8355 23.4273C20.9469 23.3819 21.06 23.3358 21.1762 23.2841C21.7413 23.0654 22.3623 22.8217 22.8399 22.4056C23.3245 21.9835 23.6578 21.3878 23.6578 20.4787V20.3317V20.2903L23.6286 20.261L23.5186 20.151C23.3348 19.9672 23.2032 19.6748 23.1177 19.3824C23.0326 19.0915 22.9978 18.8168 22.9978 18.6817V18.5717V18.5479L22.9871 18.5266L22.9501 18.4535L22.9508 18.4532L22.9441 18.4432C22.729 18.1205 22.6145 17.8548 22.5581 17.6597C22.5299 17.562 22.5164 17.4829 22.5119 17.4237C22.5077 17.3698 22.5115 17.3382 22.5144 17.3252L22.5835 17.1862L22.5999 17.1532L22.5909 17.1173L22.554 16.9704L22.5542 16.9703L22.5519 16.9632C22.4649 16.702 22.4206 16.3406 22.4558 16.0062C22.4913 15.6682 22.6048 15.3846 22.8062 15.2445L22.9153 15.172L22.9476 15.1506L22.957 15.1131L22.9936 14.9677C23.1331 14.4818 23.4069 14.1405 23.8894 13.9336L23.8895 13.9337L23.8928 13.9321C24.5387 13.6263 25.4281 13.6471 26.2688 13.9777C26.1823 14.5911 26.3669 15.0678 26.5437 15.4909C26.5559 15.5251 26.568 15.5587 26.5799 15.5916C26.7489 16.0594 26.8734 16.4039 26.6218 16.8746L26.6213 16.8743L26.6172 16.8847L26.5441 17.0677L26.5275 17.1093L26.5474 17.1493L26.6185 17.2922C26.6188 17.2941 26.6196 17.2984 26.6202 17.3058C26.6214 17.3208 26.6216 17.3427 26.6196 17.3718C26.6155 17.4299 26.603 17.5108 26.5767 17.6114C26.5245 17.8118 26.4188 18.0863 26.223 18.4075L26.1505 18.5137L26.1331 18.5392V18.57V18.6737C26.1144 18.8213 26.0783 19.0957 25.999 19.3821C25.9178 19.6755 25.7951 19.9666 25.6124 20.1493L25.5024 20.2593L25.4731 20.2886V20.33V20.477C25.4731 21.3861 25.8065 21.9818 26.291 22.4039C26.7693 22.8206 27.3913 23.0644 27.957 23.2833C28.5285 23.5045 29.0441 23.71 29.4373 24.0368C29.8038 24.3416 30.0671 24.7552 30.1538 25.4H23.667H23.567V25.5V26.2331V26.3331H23.667H31H31.1V26.2331V25.8661C31.1 24.7212 30.7041 23.9794 30.1466 23.4649C29.595 22.9558 28.8906 22.675 28.2882 22.4376Z" fill="#DF18FF" stroke="#DF18FF" stroke-width="0.2"/>
<path d="M16.2239 13.5208C15.1464 13.5208 14.5382 14.032 14.2297 14.3376C13.2622 14.5872 12.7582 15.1283 12.4968 15.7794C12.2405 16.4181 12.2198 17.1586 12.2017 17.808L12.2009 17.8342C12.2009 17.8343 12.2009 17.8345 12.2009 17.8346C12.1824 18.3506 12.1641 18.8344 12.0617 19.2485C11.9604 19.6584 11.7792 19.9889 11.4423 20.209L11.1154 20.3904L11.0205 20.443L11.0807 20.5333L11.3007 20.8633C11.8169 21.638 12.9646 22.3622 14.1528 22.7086C13.7443 23.862 12.7559 24.2426 11.6805 24.6366C11.0419 24.855 10.3455 25.0982 9.81117 25.5472C9.26958 26.0023 8.9 26.6633 8.9 27.7V28.0669V28.1669H9H22.933H23.033V28.0669V27.7C23.033 26.6633 22.6635 26.0025 22.127 25.5474C21.5974 25.0982 20.9104 24.8547 20.2908 24.6359C20.2748 24.63 20.2589 24.6242 20.243 24.6183C19.1834 24.2304 18.2198 23.8775 17.8172 22.708C19.0058 22.3617 20.153 21.6373 20.6701 20.8624L20.6702 20.8624L20.8902 20.5324L20.9504 20.4421L20.8555 20.3895L20.528 20.2078C20.2099 20.0059 20.0004 19.6481 19.8478 19.1812C19.695 18.7136 19.6045 18.1537 19.5127 17.5654L19.5126 17.5644C19.5081 17.5379 19.5037 17.5112 19.4993 17.4845C19.3571 16.6287 19.1955 15.656 18.7585 14.8912C18.5317 14.4943 18.2292 14.1502 17.8149 13.906C17.4005 13.6616 16.8803 13.5208 16.2239 13.5208ZM22.0804 27.233H9.88561C9.97297 26.723 10.2132 26.4009 10.5523 26.1586C10.8986 25.9112 11.3468 25.7471 11.8564 25.5606C11.8931 25.5472 11.9302 25.5336 11.9675 25.5199L11.9679 25.5198C11.9824 25.5144 11.997 25.509 12.0116 25.5035C12.638 25.2708 13.3128 25.0201 13.8862 24.5843C14.4774 24.135 14.9584 23.4914 15.1837 22.4777L15.1837 22.4778L15.1842 22.4756L15.2572 22.1086L15.2767 22.0105L15.1786 21.991L14.8117 21.918L14.8117 21.918L14.8103 21.9177C13.8799 21.7457 12.8829 21.2081 12.3313 20.6619C12.6876 20.3065 12.8777 19.8643 12.9834 19.3976C13.0946 18.9066 13.1137 18.3809 13.1315 17.8925L13.1321 17.8758H13.1321L13.1321 17.8746C13.1507 17.1193 13.1882 16.5253 13.3807 16.0833C13.4756 15.8654 13.6077 15.6861 13.7942 15.5435C13.9813 15.4005 14.2279 15.2909 14.5563 15.2199L14.5565 15.2205L14.5671 15.2169L14.6771 15.18L14.6993 15.1725L14.7159 15.1559L14.789 15.0828L14.7895 15.0823C15.0411 14.8307 15.4197 14.4521 16.2213 14.4521C16.6591 14.4521 16.9999 14.5281 17.2715 14.6685C17.5423 14.8084 17.7508 15.0157 17.9192 15.2893C18.2602 15.8429 18.4319 16.6566 18.6157 17.7056C18.707 18.2725 18.7996 18.8474 18.9578 19.3681C19.106 19.8563 19.3138 20.3042 19.6385 20.6585C19.0876 21.2059 18.0885 21.7445 17.1561 21.9177L17.1548 21.918L16.7878 21.991L16.6898 22.0105L16.7093 22.1086L16.7823 22.4756L16.7824 22.476C16.989 23.491 17.4706 24.1351 18.0667 24.5845C18.6366 25.0141 19.3094 25.2639 19.9286 25.4938C19.952 25.5025 19.9754 25.5111 19.9986 25.5198L19.9991 25.5199L20.0071 25.5229C20.5578 25.7247 21.0443 25.9029 21.4139 26.1714C21.7533 26.4178 21.993 26.74 22.0804 27.233Z" fill="#DF18FF" stroke="#DF18FF" stroke-width="0.2"/>
</g>
<defs>
<clipPath id="clip0_5530_2780">
<rect width="22" height="22" fill="white" transform="translate(9 9)"/>
</clipPath>
</defs>
</svg>
