<svg width="14" height="14" viewBox="0 0 14 14" fill="none" xmlns="http://www.w3.org/2000/svg">
<path d="M11.6974 5.68751L12.2446 6.23463C12.3484 6.33478 12.4072 6.47227 12.4085 6.61626C12.4099 6.76017 12.3528 6.8992 12.2507 7.00076M11.6974 5.68751L12.18 6.93001M11.6974 5.68751L12.2452 5.1397L12.2452 5.13971L12.2464 5.13854C12.4507 4.92746 12.4472 4.59222 12.2404 4.3848L12.2402 4.38457C12.0328 4.1778 11.6975 4.17427 11.4865 4.37863L11.4853 4.37976L10.9375 4.92757M11.6974 5.68751L10.9375 4.92757M12.2507 7.00076C12.2506 7.00082 12.2506 7.00089 12.2505 7.00095L12.18 6.93001M12.2507 7.00076C12.2508 7.00067 12.2509 7.00058 12.251 7.00049L12.18 6.93001M12.2507 7.00076C12.1491 7.10283 12.0101 7.15986 11.8663 7.15852C11.7223 7.15718 11.5848 7.09836 11.4846 6.99459M12.18 6.93001C12.0974 7.01313 11.9842 7.05962 11.8672 7.05853C11.7496 7.05743 11.6375 7.00931 11.556 6.92454M11.4846 6.99459L11.4853 6.99525L11.556 6.92454M11.4846 6.99459C11.4844 6.99434 11.4842 6.99409 11.4839 6.99385L11.556 6.92454M11.4846 6.99459L11.556 6.92454M10.9375 4.92757L10.3897 4.37976L10.3897 4.37975L10.3885 4.37863C10.1774 4.17426 9.84221 4.17782 9.63479 4.38457L9.63456 4.3848C9.42779 4.59222 9.42426 4.92746 9.62861 5.13854L9.6286 5.13855L9.62975 5.1397L10.1776 5.68751L10.9375 4.92757ZM6.08321 5.78713L6.08358 5.7875H6.125C6.84771 5.7875 7.54087 5.50023 8.05183 4.9893L7.98112 4.91859L8.05183 4.9893C8.56276 4.47837 8.85003 3.78519 8.85003 3.06247C8.85003 2.33974 8.56276 1.64659 8.05183 1.13564L7.98112 1.20635L8.05183 1.13564C7.5409 0.624706 6.84772 0.337439 6.125 0.337439C5.40227 0.337439 4.70913 0.624707 4.19817 1.13563L4.19817 1.13564C3.68724 1.64657 3.39997 2.33974 3.39997 3.06247L3.39997 3.06255C3.40054 3.78527 3.68838 4.47782 4.19867 4.9887L4.19875 4.98878C4.69979 5.48925 5.37558 5.77575 6.08321 5.78713ZM4.47503 3.06258C4.47606 2.15407 5.20964 1.41784 6.11715 1.4125H6.125C6.79221 1.4125 7.39395 1.81469 7.64919 2.43084L7.64921 2.43087C7.90495 3.04756 7.76367 3.7576 7.29189 4.22935L7.3626 4.30007L7.29189 4.22936C6.8201 4.70114 6.11009 4.84242 5.49341 4.58668L5.49337 4.58666C4.87725 4.33145 4.47507 3.72976 4.47503 3.06258ZM6.12495 6.52303L6.12487 6.4625C4.82254 6.46417 3.57375 6.98219 2.65273 7.90268L2.65269 7.90273C1.73218 8.82379 1.21421 10.0726 1.2125 11.3749V11.375V13.125C1.2125 13.2673 1.26886 13.4043 1.36976 13.5052L6.12495 6.52303ZM9.96249 12.5875H2.2875V11.375C2.2875 10.0041 3.01876 8.73726 4.20617 8.0519L4.2062 8.05189C5.39368 7.36594 6.85619 7.36594 8.04366 8.05189L8.04369 8.0519C9.23117 8.73731 9.96236 10.0043 9.96236 11.375L9.96249 12.5875ZM11.0082 6.37673L10.9375 6.30602L10.8668 6.37673L10.9375 6.44744L11.0082 6.37673Z" fill="#545F7D" stroke="#545F7D" stroke-width="0.2"/>
</svg>
