<svg width="16" height="16" viewBox="0 0 16 16" fill="none" xmlns="http://www.w3.org/2000/svg">
<path fill-rule="evenodd" clip-rule="evenodd" d="M7.98572 1.28751C7.85197 1.29314 7.73572 1.38126 7.69447 1.50876L6.18759 6.17996L1.28071 6.16996C1.14196 6.16996 1.01821 6.25934 0.975716 6.39121C0.932591 6.52371 0.980091 6.66809 1.09259 6.74996L5.06891 9.62676L3.54203 14.293C3.49891 14.4249 3.54578 14.5699 3.65828 14.6511C3.77016 14.733 3.92265 14.733 4.03454 14.6511L7.9995 11.758L11.9657 14.6511C12.0776 14.733 12.2301 14.733 12.342 14.6511C12.4545 14.5699 12.5014 14.4249 12.4582 14.293L10.9314 9.62676L14.9077 6.74996C15.0202 6.66809 15.0677 6.52371 15.0246 6.39121C14.9814 6.25933 14.8583 6.16996 14.7196 6.17059L9.81269 6.18059L8.30393 1.50939V1.50876C8.25956 1.37188 8.12957 1.28188 7.98581 1.28751L7.98572 1.28751Z" fill="#E9B200"/>
</svg>
